<svg width="96" height="96" xmlns="http://www.w3.org/2000/svg" xmlns:xlink="http://www.w3.org/1999/xlink" xml:space="preserve" overflow="hidden"><g transform="translate(-452 -576)"><path d="M485.5 616C488.333 615.999 490.78 617.98 491.37 620.75 491.64 621.821 492.727 622.47 493.798 622.2 494.812 621.944 495.458 620.951 495.28 619.92 494.128 614.519 488.815 611.074 483.414 612.226 479.556 613.049 476.543 616.062 475.72 619.92 475.532 621.008 476.262 622.043 477.35 622.232 478.38 622.41 479.374 621.764 479.63 620.75 480.22 617.98 482.667 615.999 485.5 616Z"/><path d="M514.5 612C509.786 612.02 505.719 615.313 504.72 619.92 504.532 621.008 505.262 622.043 506.35 622.232 507.38 622.41 508.374 621.764 508.63 620.75 509.316 617.508 512.5 615.436 515.742 616.122 518.064 616.614 519.879 618.428 520.37 620.75 520.558 621.838 521.593 622.568 522.682 622.38 523.77 622.191 524.5 621.156 524.311 620.068 524.303 620.018 524.292 619.969 524.28 619.92 523.281 615.313 519.214 612.02 514.5 612Z"/><path d="M519.46 637.41C518.584 636.741 517.332 636.906 516.66 637.78 509.599 646.981 496.417 648.716 487.215 641.655 485.76 640.539 484.457 639.236 483.34 637.78 482.666 636.905 481.41 636.741 480.535 637.415 479.66 638.089 479.496 639.345 480.17 640.22 488.578 651.172 504.272 653.234 515.224 644.826 516.954 643.498 518.502 641.95 519.83 640.22 520.504 639.345 520.341 638.089 519.467 637.415 519.464 637.413 519.462 637.412 519.46 637.41Z"/><path d="M471.32 593.37C472.413 592.339 473.562 591.367 474.76 590.46 473.078 589.963 471.515 589.126 470.17 588 472 586 481.9 582 500 582 518.1 582 528 586 529.83 588 528.485 589.126 526.922 589.963 525.24 590.46 526.438 591.367 527.587 592.339 528.68 593.37 532 591.82 534 590 534 588 534 582.48 518.78 578 500 578 481.22 578 466 582.48 466 588 466 590 468 591.82 471.32 593.37Z"/><path d="M500 590C518.778 590 534 605.222 534 624 534 642.778 518.778 658 500 658 481.222 658 466 642.778 466 624 466 605.222 481.222 590 500 590M500 586C479.013 586 462 603.013 462 624 462 644.987 479.013 662 500 662 520.987 662 538 644.987 538 624 538 603.013 520.987 586 500 586Z"/></g></svg>