<svg width="96" height="96" xmlns="http://www.w3.org/2000/svg" xmlns:xlink="http://www.w3.org/1999/xlink" xml:space="preserve" overflow="hidden"><g transform="translate(-316 -576)"><path d="M364.936 589.014C348.375 588.5 334.534 601.509 334.02 618.07 334.011 618.38 334.006 618.69 334.006 619 334.006 639.948 355.07 655.28 361.897 659.7 363.19 660.537 364.851 660.552 366.159 659.739 372.768 655.652 392.415 641.858 393.915 621.475 395.163 604.51 381.939 589.528 364.936 589.014ZM342.006 621.651 342.006 616 348.657 616C354.37 616.007 358.999 620.636 359.006 626.349L359.006 632 352.355 632C346.642 631.993 342.013 627.364 342.006 621.651ZM367.006 648 361.006 648C359.901 648 359.006 647.105 359.006 646 359.006 644.895 359.901 644 361.006 644L367.006 644C368.111 644 369.006 644.895 369.006 646 369.006 647.105 368.111 648 367.006 648ZM386.006 621.651C385.999 627.364 381.37 631.993 375.657 632L369.006 632 369.006 626.349C369.013 620.636 373.642 616.007 379.355 616L386.006 616Z"/></g></svg>