<svg width="96" height="96" xmlns="http://www.w3.org/2000/svg" xmlns:xlink="http://www.w3.org/1999/xlink" xml:space="preserve" overflow="hidden"><g transform="translate(-164 -562)"><path d="M194.73 593 187.27 600.4C178.86 608.81 176.86 623.05 183.32 632.66 182.061 634.112 182.216 636.31 183.668 637.569 184.936 638.669 186.808 638.707 188.12 637.66 197.72 644.82 212.55 642.96 221.21 634.3L228.67 626.85C226.14 622.5 221.17 615.85 213.43 608.14 205.69 600.43 199.08 595.47 194.73 593Z"/><path d="M244.13 611.86C244.13 611.76 244.06 611.65 244.02 611.54 241.92 606.54 237.53 599.54 238.75 593.69L238.75 593.69C238.946 592.506 238.546 591.301 237.68 590.47L237 589.72C239.8 587.63 242 586.41 243.33 586.42L243.33 580.42C240.6 580.42 236.88 582.35 232.72 585.48L231.16 583.92C230.331 583.052 229.123 582.654 227.94 582.86L227.94 582.86C222.1 584.08 215.07 579.69 210.09 577.59L209.77 577.48C203.79 575.276 197.155 578.337 194.951 584.318 194.493 585.561 194.252 586.875 194.24 588.2 202.72 592 214.51 603.6 216.24 605.35 217.97 607.1 229.6 618.89 233.39 627.35 239.758 627.301 244.88 622.099 244.831 615.732 244.821 614.411 244.584 613.101 244.13 611.86Z"/></g></svg>